<?xml version="1.0" encoding="UTF-8" standalone="no"?>
<!-- Created with Inkscape (http://www.inkscape.org/) -->

<svg
   xmlns:dc="http://purl.org/dc/elements/1.1/"
   xmlns:cc="http://creativecommons.org/ns#"
   xmlns:rdf="http://www.w3.org/1999/02/22-rdf-syntax-ns#"
   xmlns:svg="http://www.w3.org/2000/svg"
   xmlns="http://www.w3.org/2000/svg"
   xmlns:sodipodi="http://sodipodi.sourceforge.net/DTD/sodipodi-0.dtd"
   xmlns:inkscape="http://www.inkscape.org/namespaces/inkscape"
   width="500mm"
   height="250mm"
   viewBox="0 0 500 250"
   version="1.1"
   id="svg85"
   inkscape:version="0.92.1 r15371"
   sodipodi:docname="MainBox.svg">
  <defs
     id="defs79" />
  <sodipodi:namedview
     id="base"
     pagecolor="#ffffff"
     bordercolor="#666666"
     borderopacity="1.0"
     inkscape:pageopacity="0.0"
     inkscape:pageshadow="2"
     inkscape:zoom="0.35"
     inkscape:cx="-270.97725"
     inkscape:cy="-32.95185"
     inkscape:document-units="mm"
     inkscape:current-layer="layer1"
     showgrid="false"
     showguides="true"
     inkscape:guide-bbox="true"
     inkscape:window-width="1366"
     inkscape:window-height="706"
     inkscape:window-x="-8"
     inkscape:window-y="-8"
     inkscape:window-maximized="1">
    <sodipodi:guide
       position="-459.70358,300"
       orientation="0,1"
       id="guide137"
       inkscape:locked="false"
       inkscape:label=""
       inkscape:color="rgb(0,0,255)" />
    <sodipodi:guide
       position="-214.69047,150.43452"
       orientation="0,1"
       id="guide139"
       inkscape:locked="false" />
    <sodipodi:guide
       position="-269.49702,24.568452"
       orientation="0,1"
       id="guide141"
       inkscape:locked="false" />
    <sodipodi:guide
       position="-216.58036,124.73214"
       orientation="0,1"
       id="guide143"
       inkscape:locked="false" />
    <sodipodi:guide
       position="-25.324405,124.73214"
       orientation="1,0"
       id="guide145"
       inkscape:locked="false" />
    <sodipodi:guide
       position="-125.11012,111.125"
       orientation="1,0"
       id="guide147"
       inkscape:locked="false" />
    <sodipodi:guide
       position="-30,139.09524"
       orientation="1,0"
       id="guide149"
       inkscape:locked="false"
       inkscape:label=""
       inkscape:color="rgb(255,0,251)" />
    <sodipodi:guide
       position="-60,65.767857"
       orientation="1,0"
       id="guide151"
       inkscape:locked="false"
       inkscape:label=""
       inkscape:color="rgb(255,0,193)" />
    <sodipodi:guide
       position="-89.999999,60.098214"
       orientation="1,0"
       id="guide153"
       inkscape:locked="false"
       inkscape:label=""
       inkscape:color="rgb(243,6,228)" />
    <sodipodi:guide
       position="-120,86.934523"
       orientation="1,0"
       id="guide155"
       inkscape:locked="false"
       inkscape:label=""
       inkscape:color="rgb(255,0,251)" />
    <sodipodi:guide
       position="-178.02678,30"
       orientation="0,1"
       id="guide157"
       inkscape:locked="false"
       inkscape:label=""
       inkscape:color="rgb(255,0,243)" />
    <sodipodi:guide
       position="-215.44643,60"
       orientation="0,1"
       id="guide159"
       inkscape:locked="false"
       inkscape:label=""
       inkscape:color="rgb(255,0,244)" />
    <sodipodi:guide
       position="-237.36905,89.999999"
       orientation="0,1"
       id="guide161"
       inkscape:locked="false"
       inkscape:label=""
       inkscape:color="rgb(255,0,240)" />
    <sodipodi:guide
       position="-213.93452,120"
       orientation="0,1"
       id="guide163"
       inkscape:locked="false"
       inkscape:label=""
       inkscape:color="rgb(255,0,234)" />
    <sodipodi:guide
       position="309.23084,181.47601"
       orientation="1,0"
       id="guide358"
       inkscape:locked="false" />
  </sodipodi:namedview>
  <metadata
     id="metadata82">
    <rdf:RDF>
      <cc:Work
         rdf:about="">
        <dc:format>image/svg+xml</dc:format>
        <dc:type
           rdf:resource="http://purl.org/dc/dcmitype/StillImage" />
        <dc:title></dc:title>
      </cc:Work>
    </rdf:RDF>
  </metadata>
  <g
     inkscape:label="Layer 1"
     inkscape:groupmode="layer"
     id="layer1"
     transform="translate(0,-47)">
    <g
       id="g131"
       transform="matrix(0.28222199,0,0,0.28222199,-158.1119,-9.7609502)">
      <g
         id="g89"
         transform="translate(8.4572194,-7.5749586)">
        <polygon
           id="polygon87"
           points="159.44895,10.62993 180.70881,10.62993 180.70881,0 201.96867,0 201.96867,10.62993 223.22853,10.62993 223.22853,0 244.48839,0 244.48839,10.62993 265.74825,10.62993 265.74825,0 287.00811,0 287.00811,10.62993 308.26797,10.62993 308.26797,0 329.52783,0 329.52783,10.62993 350.78769,10.62993 350.78769,0 372.04755,0 372.04755,10.62993 393.30741,10.62993 393.30741,0 414.56727,0 414.56727,10.62993 435.82713,10.62993 435.82713,0 457.08699,0 457.08699,10.62993 478.34685,10.62993 478.34685,0 499.60671,0 499.60671,10.62993 526.18154,10.62993 526.18154,0 552.75636,0 552.75636,26.574825 542.12643,26.574825 542.12643,53.14965 552.75636,53.14965 552.75636,74.40951 542.12643,74.40951 542.12643,95.66937 552.75636,95.66937 552.75636,116.92923 542.12643,116.92923 542.12643,138.18909 552.75636,138.18909 552.75636,159.44895 542.12643,159.44895 542.12643,180.70881 552.75636,180.70881 552.75636,201.96867 542.12643,201.96867 542.12643,223.22853 552.75636,223.22853 552.75636,244.48839 542.12643,244.48839 542.12643,265.74825 552.75636,265.74825 552.75636,287.00811 542.12643,287.00811 542.12643,308.26797 552.75636,308.26797 552.75636,329.52783 542.12643,329.52783 542.12643,350.78769 552.75636,350.78769 552.75636,372.04755 542.12643,372.04755 542.12643,393.30741 552.75636,393.30741 552.75636,414.56727 542.12643,414.56727 542.12643,435.82713 552.75636,435.82713 552.75636,457.08699 542.12643,457.08699 542.12643,478.34685 552.75636,478.34685 552.75636,499.60671 542.12643,499.60671 542.12643,526.18154 552.75636,526.18154 552.75636,552.75636 526.18154,552.75636 526.18154,542.12643 499.60671,542.12643 499.60671,552.75636 478.34685,552.75636 478.34685,542.12643 457.08699,542.12643 457.08699,552.75636 435.82713,552.75636 435.82713,542.12643 414.56727,542.12643 414.56727,552.75636 393.30741,552.75636 393.30741,542.12643 372.04755,542.12643 372.04755,552.75636 350.78769,552.75636 350.78769,542.12643 329.52783,542.12643 329.52783,552.75636 308.26797,552.75636 308.26797,542.12643 287.00811,542.12643 287.00811,552.75636 265.74825,552.75636 265.74825,542.12643 244.48839,542.12643 244.48839,552.75636 223.22853,552.75636 223.22853,542.12643 201.96867,542.12643 201.96867,552.75636 180.70881,552.75636 180.70881,542.12643 159.44895,542.12643 159.44895,552.75636 138.18909,552.75636 138.18909,542.12643 116.92923,542.12643 116.92923,552.75636 95.66937,552.75636 95.66937,542.12643 74.40951,542.12643 74.40951,552.75636 53.14965,552.75636 53.14965,542.12643 26.574825,542.12643 26.574825,552.75636 0,552.75636 0,526.18154 10.62993,526.18154 10.62993,499.60671 0,499.60671 0,478.34685 10.62993,478.34685 10.62993,457.08699 0,457.08699 0,435.82713 10.62993,435.82713 10.62993,414.56727 0,414.56727 0,393.30741 10.62993,393.30741 10.62993,372.04755 0,372.04755 0,350.78769 10.62993,350.78769 10.62993,329.52783 0,329.52783 0,308.26797 10.62993,308.26797 10.62993,287.00811 0,287.00811 0,265.74825 10.62993,265.74825 10.62993,244.48839 0,244.48839 0,223.22853 10.62993,223.22853 10.62993,201.96867 0,201.96867 0,180.70881 10.62993,180.70881 10.62993,159.44895 0,159.44895 0,138.18909 10.62993,138.18909 10.62993,116.92923 0,116.92923 0,95.66937 10.62993,95.66937 10.62993,74.40951 0,74.40951 0,53.14965 10.62993,53.14965 10.62993,26.574825 0,26.574825 0,0 26.574825,0 26.574825,10.62993 53.14965,10.62993 53.14965,0 74.40951,0 74.40951,10.62993 95.66937,10.62993 95.66937,0 116.92923,0 116.92923,10.62993 138.18909,10.62993 138.18909,0 159.44895,0 "
           style="fill:none;stroke:#000000;stroke-width:0.90000075" />
      </g>
      <g
         id="g93"
         transform="translate(561.21358,-7.5749586)">
        <polygon
           id="polygon91"
           points="159.44895,10.62993 180.70881,10.62993 180.70881,0 201.96867,0 201.96867,10.62993 223.22853,10.62993 223.22853,0 244.48839,0 244.48839,10.62993 265.74825,10.62993 265.74825,0 287.00811,0 287.00811,10.62993 308.26797,10.62993 308.26797,0 329.52783,0 329.52783,10.62993 350.78769,10.62993 350.78769,0 372.04755,0 372.04755,10.62993 393.30741,10.62993 393.30741,0 414.56727,0 414.56727,10.62993 435.82713,10.62993 435.82713,0 457.08699,0 457.08699,10.62993 478.34685,10.62993 478.34685,0 499.60671,0 499.60671,10.62993 526.18154,10.62993 526.18154,0 552.75636,0 552.75636,26.574825 542.12643,26.574825 542.12643,53.14965 552.75636,53.14965 552.75636,74.40951 542.12643,74.40951 542.12643,95.66937 552.75636,95.66937 552.75636,116.92923 542.12643,116.92923 542.12643,138.18909 552.75636,138.18909 552.75636,159.44895 542.12643,159.44895 542.12643,180.70881 552.75636,180.70881 552.75636,201.96867 542.12643,201.96867 542.12643,223.22853 552.75636,223.22853 552.75636,244.48839 542.12643,244.48839 542.12643,265.74825 552.75636,265.74825 552.75636,287.00811 542.12643,287.00811 542.12643,308.26797 552.75636,308.26797 552.75636,329.52783 542.12643,329.52783 542.12643,350.78769 552.75636,350.78769 552.75636,372.04755 542.12643,372.04755 542.12643,393.30741 552.75636,393.30741 552.75636,414.56727 542.12643,414.56727 542.12643,435.82713 552.75636,435.82713 552.75636,457.08699 542.12643,457.08699 542.12643,478.34685 552.75636,478.34685 552.75636,499.60671 542.12643,499.60671 542.12643,526.18154 552.75636,526.18154 552.75636,552.75636 526.18154,552.75636 526.18154,542.12643 499.60671,542.12643 499.60671,552.75636 478.34685,552.75636 478.34685,542.12643 457.08699,542.12643 457.08699,552.75636 435.82713,552.75636 435.82713,542.12643 414.56727,542.12643 414.56727,552.75636 393.30741,552.75636 393.30741,542.12643 372.04755,542.12643 372.04755,552.75636 350.78769,552.75636 350.78769,542.12643 329.52783,542.12643 329.52783,552.75636 308.26797,552.75636 308.26797,542.12643 287.00811,542.12643 287.00811,552.75636 265.74825,552.75636 265.74825,542.12643 244.48839,542.12643 244.48839,552.75636 223.22853,552.75636 223.22853,542.12643 201.96867,542.12643 201.96867,552.75636 180.70881,552.75636 180.70881,542.12643 159.44895,542.12643 159.44895,552.75636 138.18909,552.75636 138.18909,542.12643 116.92923,542.12643 116.92923,552.75636 95.66937,552.75636 95.66937,542.12643 74.40951,542.12643 74.40951,552.75636 53.14965,552.75636 53.14965,542.12643 26.574825,542.12643 26.574825,552.75636 0,552.75636 0,526.18154 10.62993,526.18154 10.62993,499.60671 0,499.60671 0,478.34685 10.62993,478.34685 10.62993,457.08699 0,457.08699 0,435.82713 10.62993,435.82713 10.62993,414.56727 0,414.56727 0,393.30741 10.62993,393.30741 10.62993,372.04755 0,372.04755 0,350.78769 10.62993,350.78769 10.62993,329.52783 0,329.52783 0,308.26797 10.62993,308.26797 10.62993,287.00811 0,287.00811 0,265.74825 10.62993,265.74825 10.62993,244.48839 0,244.48839 0,223.22853 10.62993,223.22853 10.62993,201.96867 0,201.96867 0,180.70881 10.62993,180.70881 10.62993,159.44895 0,159.44895 0,138.18909 10.62993,138.18909 10.62993,116.92923 0,116.92923 0,95.66937 10.62993,95.66937 10.62993,74.40951 0,74.40951 0,53.14965 10.62993,53.14965 10.62993,26.574825 0,26.574825 0,0 26.574825,0 26.574825,10.62993 53.14965,10.62993 53.14965,0 74.40951,0 74.40951,10.62993 95.66937,10.62993 95.66937,0 116.92923,0 116.92923,10.62993 138.18909,10.62993 138.18909,0 159.44895,0 "
           style="fill:none;stroke:#000000;stroke-width:0.90000075" />
      </g>
      <g
         id="g97"
         transform="translate(1113.9698,-7.5749586)">
        <polygon
           id="polygon95"
           points="170.07888,10.62993 191.33874,10.62993 191.33874,0 212.5986,0 212.5986,10.62993 233.85846,10.62993 233.85846,0 255.11832,0 255.11832,10.62993 276.37818,10.62993 276.37818,0 297.63804,0 297.63804,10.62993 318.8979,10.62993 318.8979,0 340.15776,0 340.15776,10.62993 361.41762,10.62993 361.41762,0 382.67748,0 382.67748,10.62993 403.93734,10.62993 403.93734,0 425.1972,0 425.1972,10.62993 446.45706,10.62993 446.45706,0 467.71692,0 467.71692,10.62993 488.97678,10.62993 488.97678,0 510.23664,0 510.23664,10.62993 531.4965,10.62993 531.4965,0 552.75636,0 552.75636,10.62993 574.01622,10.62993 574.01622,0 595.27608,0 595.27608,10.62993 616.53594,10.62993 616.53594,0 637.7958,0 637.7958,10.62993 659.05566,10.62993 659.05566,0 680.31552,0 680.31552,10.62993 701.57538,10.62993 701.57538,0 722.83524,0 722.83524,10.62993 744.0951,10.62993 744.0951,0 765.35496,0 765.35496,10.62993 786.61482,10.62993 786.61482,0 807.87468,0 807.87468,10.62993 829.13454,10.62993 829.13454,0 850.3944,0 850.3944,10.62993 871.65426,10.62993 871.65426,0 892.91412,0 892.91412,10.62993 914.17398,10.62993 914.17398,0 935.43384,0 935.43384,10.62993 956.6937,10.62993 956.6937,0 977.95356,0 977.95356,10.62993 999.21342,10.62993 999.21342,0 1020.4733,0 1020.4733,10.62993 1052.3631,10.62993 1052.3631,0 1073.6229,0 1073.6229,26.574825 1084.2529,26.574825 1084.2529,53.14965 1073.6229,53.14965 1073.6229,74.40951 1084.2529,74.40951 1084.2529,95.66937 1073.6229,95.66937 1073.6229,116.92923 1084.2529,116.92923 1084.2529,138.18909 1073.6229,138.18909 1073.6229,159.44895 1084.2529,159.44895 1084.2529,180.70881 1073.6229,180.70881 1073.6229,201.96867 1084.2529,201.96867 1084.2529,223.22853 1073.6229,223.22853 1073.6229,244.48839 1084.2529,244.48839 1084.2529,265.74825 1073.6229,265.74825 1073.6229,287.00811 1084.2529,287.00811 1084.2529,308.26797 1073.6229,308.26797 1073.6229,329.52783 1084.2529,329.52783 1084.2529,350.78769 1073.6229,350.78769 1073.6229,372.04755 1084.2529,372.04755 1084.2529,393.30741 1073.6229,393.30741 1073.6229,414.56727 1084.2529,414.56727 1084.2529,435.82713 1073.6229,435.82713 1073.6229,457.08699 1084.2529,457.08699 1084.2529,478.34685 1073.6229,478.34685 1073.6229,499.60671 1084.2529,499.60671 1084.2529,526.18154 1073.6229,526.18154 1073.6229,552.75636 1052.3631,552.75636 1052.3631,542.12643 1020.4733,542.12643 1020.4733,552.75636 999.21342,552.75636 999.21342,542.12643 977.95356,542.12643 977.95356,552.75636 956.6937,552.75636 956.6937,542.12643 935.43384,542.12643 935.43384,552.75636 914.17398,552.75636 914.17398,542.12643 892.91412,542.12643 892.91412,552.75636 871.65426,552.75636 871.65426,542.12643 850.3944,542.12643 850.3944,552.75636 829.13454,552.75636 829.13454,542.12643 807.87468,542.12643 807.87468,552.75636 786.61482,552.75636 786.61482,542.12643 765.35496,542.12643 765.35496,552.75636 744.0951,552.75636 744.0951,542.12643 722.83524,542.12643 722.83524,552.75636 701.57538,552.75636 701.57538,542.12643 680.31552,542.12643 680.31552,552.75636 659.05566,552.75636 659.05566,542.12643 637.7958,542.12643 637.7958,552.75636 616.53594,552.75636 616.53594,542.12643 595.27608,542.12643 595.27608,552.75636 574.01622,552.75636 574.01622,542.12643 552.75636,542.12643 552.75636,552.75636 531.4965,552.75636 531.4965,542.12643 510.23664,542.12643 510.23664,552.75636 488.97678,552.75636 488.97678,542.12643 467.71692,542.12643 467.71692,552.75636 446.45706,552.75636 446.45706,542.12643 425.1972,542.12643 425.1972,552.75636 403.93734,552.75636 403.93734,542.12643 382.67748,542.12643 382.67748,552.75636 361.41762,552.75636 361.41762,542.12643 340.15776,542.12643 340.15776,552.75636 318.8979,552.75636 318.8979,542.12643 297.63804,542.12643 297.63804,552.75636 276.37818,552.75636 276.37818,542.12643 255.11832,542.12643 255.11832,552.75636 233.85846,552.75636 233.85846,542.12643 212.5986,542.12643 212.5986,552.75636 191.33874,552.75636 191.33874,542.12643 170.07888,542.12643 170.07888,552.75636 148.81902,552.75636 148.81902,542.12643 127.55916,542.12643 127.55916,552.75636 106.2993,552.75636 106.2993,542.12643 85.03944,542.12643 85.03944,552.75636 63.77958,552.75636 63.77958,542.12643 31.88979,542.12643 31.88979,552.75636 10.62993,552.75636 10.62993,526.18154 0,526.18154 0,499.60671 10.62993,499.60671 10.62993,478.34685 0,478.34685 0,457.08699 10.62993,457.08699 10.62993,435.82713 0,435.82713 0,414.56727 10.62993,414.56727 10.62993,393.30741 0,393.30741 0,372.04755 10.62993,372.04755 10.62993,350.78769 0,350.78769 0,329.52783 10.62993,329.52783 10.62993,308.26797 0,308.26797 0,287.00811 10.62993,287.00811 10.62993,265.74825 0,265.74825 0,244.48839 10.62993,244.48839 10.62993,223.22853 0,223.22853 0,201.96867 10.62993,201.96867 10.62993,180.70881 0,180.70881 0,159.44895 10.62993,159.44895 10.62993,138.18909 0,138.18909 0,116.92923 10.62993,116.92923 10.62993,95.66937 0,95.66937 0,74.40951 10.62993,74.40951 10.62993,53.14965 0,53.14965 0,26.574825 10.62993,26.574825 10.62993,0 31.88979,0 31.88979,10.62993 63.77958,10.62993 63.77958,0 85.03944,0 85.03944,10.62993 106.2993,10.62993 106.2993,0 127.55916,0 127.55916,10.62993 148.81902,10.62993 148.81902,0 170.07888,0 "
           style="fill:none;stroke:#000000;stroke-width:0.90000075" />
      </g>
      <g
         id="g101"
         transform="translate(1113.9698,545.1814)">
        <polygon
           id="polygon99"
           points="170.07888,10.62993 191.33874,10.62993 191.33874,0 212.5986,0 212.5986,10.62993 233.85846,10.62993 233.85846,0 255.11832,0 255.11832,10.62993 276.37818,10.62993 276.37818,0 297.63804,0 297.63804,10.62993 318.8979,10.62993 318.8979,0 340.15776,0 340.15776,10.62993 361.41762,10.62993 361.41762,0 382.67748,0 382.67748,10.62993 403.93734,10.62993 403.93734,0 425.1972,0 425.1972,10.62993 446.45706,10.62993 446.45706,0 467.71692,0 467.71692,10.62993 488.97678,10.62993 488.97678,0 510.23664,0 510.23664,10.62993 531.4965,10.62993 531.4965,0 552.75636,0 552.75636,10.62993 574.01622,10.62993 574.01622,0 595.27608,0 595.27608,10.62993 616.53594,10.62993 616.53594,0 637.7958,0 637.7958,10.62993 659.05566,10.62993 659.05566,0 680.31552,0 680.31552,10.62993 701.57538,10.62993 701.57538,0 722.83524,0 722.83524,10.62993 744.0951,10.62993 744.0951,0 765.35496,0 765.35496,10.62993 786.61482,10.62993 786.61482,0 807.87468,0 807.87468,10.62993 829.13454,10.62993 829.13454,0 850.3944,0 850.3944,10.62993 871.65426,10.62993 871.65426,0 892.91412,0 892.91412,10.62993 914.17398,10.62993 914.17398,0 935.43384,0 935.43384,10.62993 956.6937,10.62993 956.6937,0 977.95356,0 977.95356,10.62993 999.21342,10.62993 999.21342,0 1020.4733,0 1020.4733,10.62993 1052.3631,10.62993 1052.3631,0 1073.6229,0 1073.6229,26.574825 1084.2529,26.574825 1084.2529,53.14965 1073.6229,53.14965 1073.6229,74.40951 1084.2529,74.40951 1084.2529,95.66937 1073.6229,95.66937 1073.6229,116.92923 1084.2529,116.92923 1084.2529,138.18909 1073.6229,138.18909 1073.6229,159.44895 1084.2529,159.44895 1084.2529,180.70881 1073.6229,180.70881 1073.6229,201.96867 1084.2529,201.96867 1084.2529,223.22853 1073.6229,223.22853 1073.6229,244.48839 1084.2529,244.48839 1084.2529,265.74825 1073.6229,265.74825 1073.6229,287.00811 1084.2529,287.00811 1084.2529,308.26797 1073.6229,308.26797 1073.6229,329.52783 1084.2529,329.52783 1084.2529,350.78769 1073.6229,350.78769 1073.6229,372.04755 1084.2529,372.04755 1084.2529,393.30741 1073.6229,393.30741 1073.6229,414.56727 1084.2529,414.56727 1084.2529,435.82713 1073.6229,435.82713 1073.6229,457.08699 1084.2529,457.08699 1084.2529,478.34685 1073.6229,478.34685 1073.6229,499.60671 1084.2529,499.60671 1084.2529,526.18154 1073.6229,526.18154 1073.6229,552.75636 1052.3631,552.75636 1052.3631,542.12643 1020.4733,542.12643 1020.4733,552.75636 999.21342,552.75636 999.21342,542.12643 977.95356,542.12643 977.95356,552.75636 956.6937,552.75636 956.6937,542.12643 935.43384,542.12643 935.43384,552.75636 914.17398,552.75636 914.17398,542.12643 892.91412,542.12643 892.91412,552.75636 871.65426,552.75636 871.65426,542.12643 850.3944,542.12643 850.3944,552.75636 829.13454,552.75636 829.13454,542.12643 807.87468,542.12643 807.87468,552.75636 786.61482,552.75636 786.61482,542.12643 765.35496,542.12643 765.35496,552.75636 744.0951,552.75636 744.0951,542.12643 722.83524,542.12643 722.83524,552.75636 701.57538,552.75636 701.57538,542.12643 680.31552,542.12643 680.31552,552.75636 659.05566,552.75636 659.05566,542.12643 637.7958,542.12643 637.7958,552.75636 616.53594,552.75636 616.53594,542.12643 595.27608,542.12643 595.27608,552.75636 574.01622,552.75636 574.01622,542.12643 552.75636,542.12643 552.75636,552.75636 531.4965,552.75636 531.4965,542.12643 510.23664,542.12643 510.23664,552.75636 488.97678,552.75636 488.97678,542.12643 467.71692,542.12643 467.71692,552.75636 446.45706,552.75636 446.45706,542.12643 425.1972,542.12643 425.1972,552.75636 403.93734,552.75636 403.93734,542.12643 382.67748,542.12643 382.67748,552.75636 361.41762,552.75636 361.41762,542.12643 340.15776,542.12643 340.15776,552.75636 318.8979,552.75636 318.8979,542.12643 297.63804,542.12643 297.63804,552.75636 276.37818,552.75636 276.37818,542.12643 255.11832,542.12643 255.11832,552.75636 233.85846,552.75636 233.85846,542.12643 212.5986,542.12643 212.5986,552.75636 191.33874,552.75636 191.33874,542.12643 170.07888,542.12643 170.07888,552.75636 148.81902,552.75636 148.81902,542.12643 127.55916,542.12643 127.55916,552.75636 106.2993,552.75636 106.2993,542.12643 85.03944,542.12643 85.03944,552.75636 63.77958,552.75636 63.77958,542.12643 31.88979,542.12643 31.88979,552.75636 10.62993,552.75636 10.62993,526.18154 0,526.18154 0,499.60671 10.62993,499.60671 10.62993,478.34685 0,478.34685 0,457.08699 10.62993,457.08699 10.62993,435.82713 0,435.82713 0,414.56727 10.62993,414.56727 10.62993,393.30741 0,393.30741 0,372.04755 10.62993,372.04755 10.62993,350.78769 0,350.78769 0,329.52783 10.62993,329.52783 10.62993,308.26797 0,308.26797 0,287.00811 10.62993,287.00811 10.62993,265.74825 0,265.74825 0,244.48839 10.62993,244.48839 10.62993,223.22853 0,223.22853 0,201.96867 10.62993,201.96867 10.62993,180.70881 0,180.70881 0,159.44895 10.62993,159.44895 10.62993,138.18909 0,138.18909 0,116.92923 10.62993,116.92923 10.62993,95.66937 0,95.66937 0,74.40951 10.62993,74.40951 10.62993,53.14965 0,53.14965 0,26.574825 10.62993,26.574825 10.62993,0 31.88979,0 31.88979,10.62993 63.77958,10.62993 63.77958,0 85.03944,0 85.03944,10.62993 106.2993,10.62993 106.2993,0 127.55916,0 127.55916,10.62993 148.81902,10.62993 148.81902,0 170.07888,0 "
           style="fill:none;stroke:#000000;stroke-width:0.90000075" />
      </g>
      <g
         id="g105"
         transform="translate(8.4572194,545.1814)">
        <polygon
           id="polygon103"
           points="180.70881,0 180.70881,10.62993 201.96867,10.62993 201.96867,0 223.22853,0 223.22853,10.62993 244.48839,10.62993 244.48839,0 265.74825,0 265.74825,10.62993 287.00811,10.62993 287.00811,0 308.26797,0 308.26797,10.62993 329.52783,10.62993 329.52783,0 350.78769,0 350.78769,10.62993 372.04755,10.62993 372.04755,0 393.30741,0 393.30741,10.62993 414.56727,10.62993 414.56727,0 435.82713,0 435.82713,10.62993 457.08699,10.62993 457.08699,0 478.34685,0 478.34685,10.62993 499.60671,10.62993 499.60671,0 526.18154,0 526.18154,10.62993 542.12643,10.62993 542.12643,31.88979 552.75636,31.88979 552.75636,63.77958 542.12643,63.77958 542.12643,85.03944 552.75636,85.03944 552.75636,106.2993 542.12643,106.2993 542.12643,127.55916 552.75636,127.55916 552.75636,148.81902 542.12643,148.81902 542.12643,170.07888 552.75636,170.07888 552.75636,191.33874 542.12643,191.33874 542.12643,212.5986 552.75636,212.5986 552.75636,233.85846 542.12643,233.85846 542.12643,255.11832 552.75636,255.11832 552.75636,276.37818 542.12643,276.37818 542.12643,297.63804 552.75636,297.63804 552.75636,318.8979 542.12643,318.8979 542.12643,340.15776 552.75636,340.15776 552.75636,361.41762 542.12643,361.41762 542.12643,382.67748 552.75636,382.67748 552.75636,403.93734 542.12643,403.93734 542.12643,425.1972 552.75636,425.1972 552.75636,446.45706 542.12643,446.45706 542.12643,467.71692 552.75636,467.71692 552.75636,488.97678 542.12643,488.97678 542.12643,510.23664 552.75636,510.23664 552.75636,531.4965 542.12643,531.4965 542.12643,552.75636 552.75636,552.75636 552.75636,574.01622 542.12643,574.01622 542.12643,595.27608 552.75636,595.27608 552.75636,616.53594 542.12643,616.53594 542.12643,637.7958 552.75636,637.7958 552.75636,659.05566 542.12643,659.05566 542.12643,680.31552 552.75636,680.31552 552.75636,701.57538 542.12643,701.57538 542.12643,722.83524 552.75636,722.83524 552.75636,744.0951 542.12643,744.0951 542.12643,765.35496 552.75636,765.35496 552.75636,786.61482 542.12643,786.61482 542.12643,807.87468 552.75636,807.87468 552.75636,829.13454 542.12643,829.13454 542.12643,850.3944 552.75636,850.3944 552.75636,871.65426 542.12643,871.65426 542.12643,892.91412 552.75636,892.91412 552.75636,914.17398 542.12643,914.17398 542.12643,935.43384 552.75636,935.43384 552.75636,956.6937 542.12643,956.6937 542.12643,977.95356 552.75636,977.95356 552.75636,999.21342 542.12643,999.21342 542.12643,1020.4733 552.75636,1020.4733 552.75636,1052.3631 542.12643,1052.3631 542.12643,1073.6229 526.18154,1073.6229 526.18154,1084.2529 499.60671,1084.2529 499.60671,1073.6229 478.34685,1073.6229 478.34685,1084.2529 457.08699,1084.2529 457.08699,1073.6229 435.82713,1073.6229 435.82713,1084.2529 414.56727,1084.2529 414.56727,1073.6229 393.30741,1073.6229 393.30741,1084.2529 372.04755,1084.2529 372.04755,1073.6229 350.78769,1073.6229 350.78769,1084.2529 329.52783,1084.2529 329.52783,1073.6229 308.26797,1073.6229 308.26797,1084.2529 287.00811,1084.2529 287.00811,1073.6229 265.74825,1073.6229 265.74825,1084.2529 244.48839,1084.2529 244.48839,1073.6229 223.22853,1073.6229 223.22853,1084.2529 201.96867,1084.2529 201.96867,1073.6229 180.70881,1073.6229 180.70881,1084.2529 159.44895,1084.2529 159.44895,1073.6229 138.18909,1073.6229 138.18909,1084.2529 116.92923,1084.2529 116.92923,1073.6229 95.66937,1073.6229 95.66937,1084.2529 74.40951,1084.2529 74.40951,1073.6229 53.14965,1073.6229 53.14965,1084.2529 26.574825,1084.2529 26.574825,1073.6229 10.62993,1073.6229 10.62993,1052.3631 0,1052.3631 0,1020.4733 10.62993,1020.4733 10.62993,999.21342 0,999.21342 0,977.95356 10.62993,977.95356 10.62993,956.6937 0,956.6937 0,935.43384 10.62993,935.43384 10.62993,914.17398 0,914.17398 0,892.91412 10.62993,892.91412 10.62993,871.65426 0,871.65426 0,850.3944 10.62993,850.3944 10.62993,829.13454 0,829.13454 0,807.87468 10.62993,807.87468 10.62993,786.61482 0,786.61482 0,765.35496 10.62993,765.35496 10.62993,744.0951 0,744.0951 0,722.83524 10.62993,722.83524 10.62993,701.57538 0,701.57538 0,680.31552 10.62993,680.31552 10.62993,659.05566 0,659.05566 0,637.7958 10.62993,637.7958 10.62993,616.53594 0,616.53594 0,595.27608 10.62993,595.27608 10.62993,574.01622 0,574.01622 0,552.75636 10.62993,552.75636 10.62993,531.4965 0,531.4965 0,510.23664 10.62993,510.23664 10.62993,488.97678 0,488.97678 0,467.71692 10.62993,467.71692 10.62993,446.45706 0,446.45706 0,425.1972 10.62993,425.1972 10.62993,403.93734 0,403.93734 0,382.67748 10.62993,382.67748 10.62993,361.41762 0,361.41762 0,340.15776 10.62993,340.15776 10.62993,318.8979 0,318.8979 0,297.63804 10.62993,297.63804 10.62993,276.37818 0,276.37818 0,255.11832 10.62993,255.11832 10.62993,233.85846 0,233.85846 0,212.5986 10.62993,212.5986 10.62993,191.33874 0,191.33874 0,170.07888 10.62993,170.07888 10.62993,148.81902 0,148.81902 0,127.55916 10.62993,127.55916 10.62993,106.2993 0,106.2993 0,85.03944 10.62993,85.03944 10.62993,63.77958 0,63.77958 0,31.88979 10.62993,31.88979 10.62993,10.62993 26.574825,10.62993 26.574825,0 53.14965,0 53.14965,10.62993 74.40951,10.62993 74.40951,0 95.66937,0 95.66937,10.62993 116.92923,10.62993 116.92923,0 138.18909,0 138.18909,10.62993 159.44895,10.62993 159.44895,0 "
           style="fill:none;stroke:#000000;stroke-width:0.90000075" />
      </g>
      <g
         id="g109"
         transform="translate(561.21358,545.1814)">
        <polygon
           id="polygon107"
           points="159.44895,0 180.70881,0 180.70881,10.62993 201.96867,10.62993 201.96867,0 223.22853,0 223.22853,10.62993 244.48839,10.62993 244.48839,0 265.74825,0 265.74825,10.62993 287.00811,10.62993 287.00811,0 308.26797,0 308.26797,10.62993 329.52783,10.62993 329.52783,0 350.78769,0 350.78769,10.62993 372.04755,10.62993 372.04755,0 393.30741,0 393.30741,10.62993 414.56727,10.62993 414.56727,0 435.82713,0 435.82713,10.62993 457.08699,10.62993 457.08699,0 478.34685,0 478.34685,10.62993 499.60671,10.62993 499.60671,0 526.18154,0 526.18154,10.62993 542.12643,10.62993 542.12643,31.88979 552.75636,31.88979 552.75636,63.77958 542.12643,63.77958 542.12643,85.03944 552.75636,85.03944 552.75636,106.2993 542.12643,106.2993 542.12643,127.55916 552.75636,127.55916 552.75636,148.81902 542.12643,148.81902 542.12643,170.07888 552.75636,170.07888 552.75636,191.33874 542.12643,191.33874 542.12643,212.5986 552.75636,212.5986 552.75636,233.85846 542.12643,233.85846 542.12643,255.11832 552.75636,255.11832 552.75636,276.37818 542.12643,276.37818 542.12643,297.63804 552.75636,297.63804 552.75636,318.8979 542.12643,318.8979 542.12643,340.15776 552.75636,340.15776 552.75636,361.41762 542.12643,361.41762 542.12643,382.67748 552.75636,382.67748 552.75636,403.93734 542.12643,403.93734 542.12643,425.1972 552.75636,425.1972 552.75636,446.45706 542.12643,446.45706 542.12643,467.71692 552.75636,467.71692 552.75636,488.97678 542.12643,488.97678 542.12643,510.23664 552.75636,510.23664 552.75636,531.4965 542.12643,531.4965 542.12643,552.75636 552.75636,552.75636 552.75636,574.01622 542.12643,574.01622 542.12643,595.27608 552.75636,595.27608 552.75636,616.53594 542.12643,616.53594 542.12643,637.7958 552.75636,637.7958 552.75636,659.05566 542.12643,659.05566 542.12643,680.31552 552.75636,680.31552 552.75636,701.57538 542.12643,701.57538 542.12643,722.83524 552.75636,722.83524 552.75636,744.0951 542.12643,744.0951 542.12643,765.35496 552.75636,765.35496 552.75636,786.61482 542.12643,786.61482 542.12643,807.87468 552.75636,807.87468 552.75636,829.13454 542.12643,829.13454 542.12643,850.3944 552.75636,850.3944 552.75636,871.65426 542.12643,871.65426 542.12643,892.91412 552.75636,892.91412 552.75636,914.17398 542.12643,914.17398 542.12643,935.43384 552.75636,935.43384 552.75636,956.6937 542.12643,956.6937 542.12643,977.95356 552.75636,977.95356 552.75636,999.21342 542.12643,999.21342 542.12643,1020.4733 552.75636,1020.4733 552.75636,1052.3631 542.12643,1052.3631 542.12643,1073.6229 526.18154,1073.6229 526.18154,1084.2529 499.60671,1084.2529 499.60671,1073.6229 478.34685,1073.6229 478.34685,1084.2529 457.08699,1084.2529 457.08699,1073.6229 435.82713,1073.6229 435.82713,1084.2529 414.56727,1084.2529 414.56727,1073.6229 393.30741,1073.6229 393.30741,1084.2529 372.04755,1084.2529 372.04755,1073.6229 350.78769,1073.6229 350.78769,1084.2529 329.52783,1084.2529 329.52783,1073.6229 308.26797,1073.6229 308.26797,1084.2529 287.00811,1084.2529 287.00811,1073.6229 265.74825,1073.6229 265.74825,1084.2529 244.48839,1084.2529 244.48839,1073.6229 223.22853,1073.6229 223.22853,1084.2529 201.96867,1084.2529 201.96867,1073.6229 180.70881,1073.6229 180.70881,1084.2529 159.44895,1084.2529 159.44895,1073.6229 138.18909,1073.6229 138.18909,1084.2529 116.92923,1084.2529 116.92923,1073.6229 95.66937,1073.6229 95.66937,1084.2529 74.40951,1084.2529 74.40951,1073.6229 53.14965,1073.6229 53.14965,1084.2529 26.574825,1084.2529 26.574825,1073.6229 10.62993,1073.6229 10.62993,1052.3631 0,1052.3631 0,1020.4733 10.62993,1020.4733 10.62993,999.21342 0,999.21342 0,977.95356 10.62993,977.95356 10.62993,956.6937 0,956.6937 0,935.43384 10.62993,935.43384 10.62993,914.17398 0,914.17398 0,892.91412 10.62993,892.91412 10.62993,871.65426 0,871.65426 0,850.3944 10.62993,850.3944 10.62993,829.13454 0,829.13454 0,807.87468 10.62993,807.87468 10.62993,786.61482 0,786.61482 0,765.35496 10.62993,765.35496 10.62993,744.0951 0,744.0951 0,722.83524 10.62993,722.83524 10.62993,701.57538 0,701.57538 0,680.31552 10.62993,680.31552 10.62993,659.05566 0,659.05566 0,637.7958 10.62993,637.7958 10.62993,616.53594 0,616.53594 0,595.27608 10.62993,595.27608 10.62993,574.01622 0,574.01622 0,552.75636 10.62993,552.75636 10.62993,531.4965 0,531.4965 0,510.23664 10.62993,510.23664 10.62993,488.97678 0,488.97678 0,467.71692 10.62993,467.71692 10.62993,446.45706 0,446.45706 0,425.1972 10.62993,425.1972 10.62993,403.93734 0,403.93734 0,382.67748 10.62993,382.67748 10.62993,361.41762 0,361.41762 0,340.15776 10.62993,340.15776 10.62993,318.8979 0,318.8979 0,297.63804 10.62993,297.63804 10.62993,276.37818 0,276.37818 0,255.11832 10.62993,255.11832 10.62993,233.85846 0,233.85846 0,212.5986 10.62993,212.5986 10.62993,191.33874 0,191.33874 0,170.07888 10.62993,170.07888 10.62993,148.81902 0,148.81902 0,127.55916 10.62993,127.55916 10.62993,106.2993 0,106.2993 0,85.03944 10.62993,85.03944 10.62993,63.77958 0,63.77958 0,31.88979 10.62993,31.88979 10.62993,10.62993 26.574825,10.62993 26.574825,0 53.14965,0 53.14965,10.62993 74.40951,10.62993 74.40951,0 95.66937,0 95.66937,10.62993 116.92923,10.62993 116.92923,0 138.18909,0 138.18909,10.62993 159.44895,10.62993 "
           style="fill:none;stroke:#000000;stroke-width:0.90000075" />
      </g>
      <path
         style="fill:none;stroke:#000000;stroke-width:0.93750077px;stroke-linecap:butt;stroke-linejoin:miter;stroke-opacity:1"
         d="M 19.087154,1087.3079 H 550.58365"
         id="path135"
         inkscape:connector-curvature="0" />
    </g>
    <ellipse
       style="fill:#ffff00;fill-opacity:1;stroke:#000000;stroke-width:0.20094462;stroke-opacity:1"
       id="path165"
       cx="-74.275154"
       cy="221.2186"
       rx="7.399528"
       ry="7.3995275" />
    <g
       id="g183"
       transform="translate(17.110138,-6.0246909)">
      <circle
         r="0.34531128"
         style="fill:#00ff00;fill-opacity:1;stroke:#000000;stroke-width:0.00937742;stroke-opacity:1"
         id="ellipse167"
         cx="-135.40025"
         cy="183.21951" />
      <circle
         r="0.34531128"
         cy="183.21951"
         cx="-138.42407"
         id="circle169"
         style="fill:#00ff00;fill-opacity:1;stroke:#000000;stroke-width:0.00937742;stroke-opacity:1" />
      <circle
         cy="183.21951"
         cx="-137.51689"
         id="circle171"
         style="fill:#00ff00;fill-opacity:1;stroke:#000000;stroke-width:0.00937742;stroke-opacity:1"
         r="0.34531128" />
      <circle
         r="0.34531128"
         style="fill:#00ff00;fill-opacity:1;stroke:#000000;stroke-width:0.00937742;stroke-opacity:1"
         id="circle173"
         cx="-136.45857"
         cy="183.21951" />
    </g>
    <g
       transform="translate(46.973819,23.775861)"
       id="g193">
      <circle
         cy="183.21951"
         cx="-135.40025"
         id="circle185"
         style="fill:#00ff00;fill-opacity:1;stroke:#000000;stroke-width:0.00937742;stroke-opacity:1"
         r="0.34531128" />
      <circle
         style="fill:#00ff00;fill-opacity:1;stroke:#000000;stroke-width:0.00937742;stroke-opacity:1"
         id="circle187"
         cx="-138.42407"
         cy="183.21951"
         r="0.34531128" />
      <circle
         r="0.34531128"
         style="fill:#00ff00;fill-opacity:1;stroke:#000000;stroke-width:0.00937742;stroke-opacity:1"
         id="circle189"
         cx="-137.51689"
         cy="183.21951" />
      <circle
         cy="183.21951"
         cx="-136.45857"
         id="circle191"
         style="fill:#00ff00;fill-opacity:1;stroke:#000000;stroke-width:0.00937742;stroke-opacity:1"
         r="0.34531128" />
    </g>
    <g
       id="g203"
       transform="translate(47.107454,-6.1583261)">
      <circle
         r="0.34531128"
         style="fill:#00ff00;fill-opacity:1;stroke:#000000;stroke-width:0.00937742;stroke-opacity:1"
         id="circle195"
         cx="-135.40025"
         cy="183.21951" />
      <circle
         r="0.34531128"
         cy="183.21951"
         cx="-138.42407"
         id="circle197"
         style="fill:#00ff00;fill-opacity:1;stroke:#000000;stroke-width:0.00937742;stroke-opacity:1" />
      <circle
         cy="183.21951"
         cx="-137.51689"
         id="circle199"
         style="fill:#00ff00;fill-opacity:1;stroke:#000000;stroke-width:0.00937742;stroke-opacity:1"
         r="0.34531128" />
      <circle
         r="0.34531128"
         style="fill:#00ff00;fill-opacity:1;stroke:#000000;stroke-width:0.00937742;stroke-opacity:1"
         id="circle201"
         cx="-136.45857"
         cy="183.21951" />
    </g>
    <g
       transform="translate(77.041641,-6.0246913)"
       id="g213">
      <circle
         cy="183.21951"
         cx="-135.40025"
         id="circle205"
         style="fill:#00ff00;fill-opacity:1;stroke:#000000;stroke-width:0.00937742;stroke-opacity:1"
         r="0.34531128" />
      <circle
         style="fill:#00ff00;fill-opacity:1;stroke:#000000;stroke-width:0.00937742;stroke-opacity:1"
         id="circle207"
         cx="-138.42407"
         cy="183.21951"
         r="0.34531128" />
      <circle
         r="0.34531128"
         style="fill:#00ff00;fill-opacity:1;stroke:#000000;stroke-width:0.00937742;stroke-opacity:1"
         id="circle209"
         cx="-137.51689"
         cy="183.21951" />
      <circle
         cy="183.21951"
         cx="-136.45857"
         id="circle211"
         style="fill:#00ff00;fill-opacity:1;stroke:#000000;stroke-width:0.00937742;stroke-opacity:1"
         r="0.34531128" />
    </g>
    <g
       id="g223"
       transform="translate(107.10946,-6.2919608)">
      <circle
         r="0.34531128"
         style="fill:#00ff00;fill-opacity:1;stroke:#000000;stroke-width:0.00937742;stroke-opacity:1"
         id="circle215"
         cx="-135.40025"
         cy="183.21951" />
      <circle
         r="0.34531128"
         cy="183.21951"
         cx="-138.42407"
         id="circle217"
         style="fill:#00ff00;fill-opacity:1;stroke:#000000;stroke-width:0.00937742;stroke-opacity:1" />
      <circle
         cy="183.21951"
         cx="-137.51689"
         id="circle219"
         style="fill:#00ff00;fill-opacity:1;stroke:#000000;stroke-width:0.00937742;stroke-opacity:1"
         r="0.34531128" />
      <circle
         r="0.34531128"
         style="fill:#00ff00;fill-opacity:1;stroke:#000000;stroke-width:0.00937742;stroke-opacity:1"
         id="circle221"
         cx="-136.45857"
         cy="183.21951" />
    </g>
    <g
       transform="translate(77.041643,23.909496)"
       id="g233">
      <circle
         cy="183.21951"
         cx="-135.40025"
         id="circle225"
         style="fill:#00ff00;fill-opacity:1;stroke:#000000;stroke-width:0.00937742;stroke-opacity:1"
         r="0.34531128" />
      <circle
         style="fill:#00ff00;fill-opacity:1;stroke:#000000;stroke-width:0.00937742;stroke-opacity:1"
         id="circle227"
         cx="-138.42407"
         cy="183.21951"
         r="0.34531128" />
      <circle
         r="0.34531128"
         style="fill:#00ff00;fill-opacity:1;stroke:#000000;stroke-width:0.00937742;stroke-opacity:1"
         id="circle229"
         cx="-137.51689"
         cy="183.21951" />
      <circle
         cy="183.21951"
         cx="-136.45857"
         id="circle231"
         style="fill:#00ff00;fill-opacity:1;stroke:#000000;stroke-width:0.00937742;stroke-opacity:1"
         r="0.34531128" />
    </g>
    <g
       id="g256"
       transform="translate(106.8422,23.775861)">
      <circle
         r="0.34531128"
         style="fill:#00ff00;fill-opacity:1;stroke:#000000;stroke-width:0.00937742;stroke-opacity:1"
         id="circle248"
         cx="-135.40025"
         cy="183.21951" />
      <circle
         r="0.34531128"
         cy="183.21951"
         cx="-138.42407"
         id="circle250"
         style="fill:#00ff00;fill-opacity:1;stroke:#000000;stroke-width:0.00937742;stroke-opacity:1" />
      <circle
         cy="183.21951"
         cx="-137.51689"
         id="circle252"
         style="fill:#00ff00;fill-opacity:1;stroke:#000000;stroke-width:0.00937742;stroke-opacity:1"
         r="0.34531128" />
      <circle
         r="0.34531128"
         style="fill:#00ff00;fill-opacity:1;stroke:#000000;stroke-width:0.00937742;stroke-opacity:1"
         id="circle254"
         cx="-136.45857"
         cy="183.21951" />
    </g>
    <g
       transform="translate(17.039639,23.775861)"
       id="g266">
      <circle
         cy="183.21951"
         cx="-135.40025"
         id="circle258"
         style="fill:#00ff00;fill-opacity:1;stroke:#000000;stroke-width:0.00937742;stroke-opacity:1"
         r="0.34531128" />
      <circle
         style="fill:#00ff00;fill-opacity:1;stroke:#000000;stroke-width:0.00937742;stroke-opacity:1"
         id="circle260"
         cx="-138.42407"
         cy="183.21951"
         r="0.34531128" />
      <circle
         r="0.34531128"
         style="fill:#00ff00;fill-opacity:1;stroke:#000000;stroke-width:0.00937742;stroke-opacity:1"
         id="circle262"
         cx="-137.51689"
         cy="183.21951" />
      <circle
         cy="183.21951"
         cx="-136.45857"
         id="circle264"
         style="fill:#00ff00;fill-opacity:1;stroke:#000000;stroke-width:0.00937742;stroke-opacity:1"
         r="0.34531128" />
    </g>
    <g
       transform="translate(106.97583,53.710048)"
       id="g276">
      <circle
         cy="183.21951"
         cx="-135.40025"
         id="circle268"
         style="fill:#00ff00;fill-opacity:1;stroke:#000000;stroke-width:0.00937742;stroke-opacity:1"
         r="0.34531128" />
      <circle
         style="fill:#00ff00;fill-opacity:1;stroke:#000000;stroke-width:0.00937742;stroke-opacity:1"
         id="circle270"
         cx="-138.42407"
         cy="183.21951"
         r="0.34531128" />
      <circle
         r="0.34531128"
         style="fill:#00ff00;fill-opacity:1;stroke:#000000;stroke-width:0.00937742;stroke-opacity:1"
         id="circle272"
         cx="-137.51689"
         cy="183.21951" />
      <circle
         cy="183.21951"
         cx="-136.45857"
         id="circle274"
         style="fill:#00ff00;fill-opacity:1;stroke:#000000;stroke-width:0.00937742;stroke-opacity:1"
         r="0.34531128" />
    </g>
    <g
       id="g286"
       transform="translate(76.774373,53.843683)">
      <circle
         r="0.34531128"
         style="fill:#00ff00;fill-opacity:1;stroke:#000000;stroke-width:0.00937742;stroke-opacity:1"
         id="circle278"
         cx="-135.40025"
         cy="183.21951" />
      <circle
         r="0.34531128"
         cy="183.21951"
         cx="-138.42407"
         id="circle280"
         style="fill:#00ff00;fill-opacity:1;stroke:#000000;stroke-width:0.00937742;stroke-opacity:1" />
      <circle
         cy="183.21951"
         cx="-137.51689"
         id="circle282"
         style="fill:#00ff00;fill-opacity:1;stroke:#000000;stroke-width:0.00937742;stroke-opacity:1"
         r="0.34531128" />
      <circle
         r="0.34531128"
         style="fill:#00ff00;fill-opacity:1;stroke:#000000;stroke-width:0.00937742;stroke-opacity:1"
         id="circle284"
         cx="-136.45857"
         cy="183.21951" />
    </g>
    <g
       transform="translate(46.973821,53.843683)"
       id="g296">
      <circle
         cy="183.21951"
         cx="-135.40025"
         id="circle288"
         style="fill:#00ff00;fill-opacity:1;stroke:#000000;stroke-width:0.00937742;stroke-opacity:1"
         r="0.34531128" />
      <circle
         style="fill:#00ff00;fill-opacity:1;stroke:#000000;stroke-width:0.00937742;stroke-opacity:1"
         id="circle290"
         cx="-138.42407"
         cy="183.21951"
         r="0.34531128" />
      <circle
         r="0.34531128"
         style="fill:#00ff00;fill-opacity:1;stroke:#000000;stroke-width:0.00937742;stroke-opacity:1"
         id="circle292"
         cx="-137.51689"
         cy="183.21951" />
      <circle
         cy="183.21951"
         cx="-136.45857"
         id="circle294"
         style="fill:#00ff00;fill-opacity:1;stroke:#000000;stroke-width:0.00937742;stroke-opacity:1"
         r="0.34531128" />
    </g>
    <g
       id="g306"
       transform="translate(16.905999,53.710048)">
      <circle
         r="0.34531128"
         style="fill:#00ff00;fill-opacity:1;stroke:#000000;stroke-width:0.00937742;stroke-opacity:1"
         id="circle298"
         cx="-135.40025"
         cy="183.21951" />
      <circle
         r="0.34531128"
         cy="183.21951"
         cx="-138.42407"
         id="circle300"
         style="fill:#00ff00;fill-opacity:1;stroke:#000000;stroke-width:0.00937742;stroke-opacity:1" />
      <circle
         cy="183.21951"
         cx="-137.51689"
         id="circle302"
         style="fill:#00ff00;fill-opacity:1;stroke:#000000;stroke-width:0.00937742;stroke-opacity:1"
         r="0.34531128" />
      <circle
         r="0.34531128"
         style="fill:#00ff00;fill-opacity:1;stroke:#000000;stroke-width:0.00937742;stroke-opacity:1"
         id="circle304"
         cx="-136.45857"
         cy="183.21951" />
    </g>
    <g
       transform="translate(16.772364,83.77787)"
       id="g316">
      <circle
         cy="183.21951"
         cx="-135.40025"
         id="circle308"
         style="fill:#00ff00;fill-opacity:1;stroke:#000000;stroke-width:0.00937742;stroke-opacity:1"
         r="0.34531128" />
      <circle
         style="fill:#00ff00;fill-opacity:1;stroke:#000000;stroke-width:0.00937742;stroke-opacity:1"
         id="circle310"
         cx="-138.42407"
         cy="183.21951"
         r="0.34531128" />
      <circle
         r="0.34531128"
         style="fill:#00ff00;fill-opacity:1;stroke:#000000;stroke-width:0.00937742;stroke-opacity:1"
         id="circle312"
         cx="-137.51689"
         cy="183.21951" />
      <circle
         cy="183.21951"
         cx="-136.45857"
         id="circle314"
         style="fill:#00ff00;fill-opacity:1;stroke:#000000;stroke-width:0.00937742;stroke-opacity:1"
         r="0.34531128" />
    </g>
    <g
       id="g326"
       transform="translate(46.973821,83.911505)">
      <circle
         r="0.34531128"
         style="fill:#00ff00;fill-opacity:1;stroke:#000000;stroke-width:0.00937742;stroke-opacity:1"
         id="circle318"
         cx="-135.40025"
         cy="183.21951" />
      <circle
         r="0.34531128"
         cy="183.21951"
         cx="-138.42407"
         id="circle320"
         style="fill:#00ff00;fill-opacity:1;stroke:#000000;stroke-width:0.00937742;stroke-opacity:1" />
      <circle
         cy="183.21951"
         cx="-137.51689"
         id="circle322"
         style="fill:#00ff00;fill-opacity:1;stroke:#000000;stroke-width:0.00937742;stroke-opacity:1"
         r="0.34531128" />
      <circle
         r="0.34531128"
         style="fill:#00ff00;fill-opacity:1;stroke:#000000;stroke-width:0.00937742;stroke-opacity:1"
         id="circle324"
         cx="-136.45857"
         cy="183.21951" />
    </g>
    <g
       transform="translate(76.774373,83.911505)"
       id="g336">
      <circle
         cy="183.21951"
         cx="-135.40025"
         id="circle328"
         style="fill:#00ff00;fill-opacity:1;stroke:#000000;stroke-width:0.00937742;stroke-opacity:1"
         r="0.34531128" />
      <circle
         style="fill:#00ff00;fill-opacity:1;stroke:#000000;stroke-width:0.00937742;stroke-opacity:1"
         id="circle330"
         cx="-138.42407"
         cy="183.21951"
         r="0.34531128" />
      <circle
         r="0.34531128"
         style="fill:#00ff00;fill-opacity:1;stroke:#000000;stroke-width:0.00937742;stroke-opacity:1"
         id="circle332"
         cx="-137.51689"
         cy="183.21951" />
      <circle
         cy="183.21951"
         cx="-136.45857"
         id="circle334"
         style="fill:#00ff00;fill-opacity:1;stroke:#000000;stroke-width:0.00937742;stroke-opacity:1"
         r="0.34531128" />
    </g>
    <g
       id="g346"
       transform="translate(107.10946,83.911505)">
      <circle
         r="0.34531128"
         style="fill:#00ff00;fill-opacity:1;stroke:#000000;stroke-width:0.00937742;stroke-opacity:1"
         id="circle338"
         cx="-135.40025"
         cy="183.21951" />
      <circle
         r="0.34531128"
         cy="183.21951"
         cx="-138.42407"
         id="circle340"
         style="fill:#00ff00;fill-opacity:1;stroke:#000000;stroke-width:0.00937742;stroke-opacity:1" />
      <circle
         cy="183.21951"
         cx="-137.51689"
         id="circle342"
         style="fill:#00ff00;fill-opacity:1;stroke:#000000;stroke-width:0.00937742;stroke-opacity:1"
         r="0.34531128" />
      <circle
         r="0.34531128"
         style="fill:#00ff00;fill-opacity:1;stroke:#000000;stroke-width:0.00937742;stroke-opacity:1"
         id="circle344"
         cx="-136.45857"
         cy="183.21951" />
    </g>
    <path
       style="fill:none;stroke:#000000;stroke-width:0.26458332px;stroke-linecap:butt;stroke-linejoin:miter;stroke-opacity:1"
       d="M 309.27488,-8.8987688 V 141.10123"
       id="path362"
       inkscape:connector-curvature="0" />
    <g
       id="g384"
       transform="translate(-35.983332,134.7107)">
      <circle
         r="5.4263201"
         cy="-29.964109"
         cx="355.0347"
         id="circle372"
         style="fill:#ff0000;fill-opacity:1;stroke:#000000;stroke-width:0.14735948;stroke-opacity:1" />
      <circle
         r="5.4263201"
         style="fill:#ff0000;fill-opacity:1;stroke:#000000;stroke-width:0.14735948;stroke-opacity:1"
         id="circle374"
         cx="355.0347"
         cy="-3.0521951" />
    </g>
    <g
       id="g428"
       transform="translate(4.686905,171.54166)">
      <g
         transform="translate(-2.2678571,-178.40476)"
         id="g398">
        <g
           id="g370"
           style="fill:#ff0000"
           transform="translate(-0.15119036,1.9656156)">
          <circle
             style="fill:#ff0000;fill-opacity:1;stroke:#000000;stroke-width:0.00937742;stroke-opacity:1"
             id="circle350"
             cx="332.29846"
             cy="121.83697"
             r="0.34531128" />
          <circle
             cy="121.83697"
             cx="334.26395"
             id="circle354"
             style="fill:#ff0000;fill-opacity:1;stroke:#000000;stroke-width:0.00937742;stroke-opacity:1"
             r="0.34531128" />
        </g>
        <g
           transform="translate(17.311314,1.9656156)"
           style="fill:#ff0000"
           id="g390">
          <circle
             r="0.34531128"
             cy="121.83697"
             cx="332.29846"
             id="circle386"
             style="fill:#ff0000;fill-opacity:1;stroke:#000000;stroke-width:0.00937742;stroke-opacity:1" />
          <circle
             r="0.34531128"
             style="fill:#ff0000;fill-opacity:1;stroke:#000000;stroke-width:0.00937742;stroke-opacity:1"
             id="circle388"
             cx="334.26395"
             cy="121.83697" />
        </g>
      </g>
      <g
         transform="translate(-72.538691,-178.40476)"
         id="g412">
        <g
           transform="translate(-0.15119036,1.9656156)"
           style="fill:#ff0000"
           id="g404">
          <circle
             r="0.34531128"
             cy="121.83697"
             cx="332.29846"
             id="circle400"
             style="fill:#ff0000;fill-opacity:1;stroke:#000000;stroke-width:0.00937742;stroke-opacity:1" />
          <circle
             r="0.34531128"
             style="fill:#ff0000;fill-opacity:1;stroke:#000000;stroke-width:0.00937742;stroke-opacity:1"
             id="circle402"
             cx="334.26395"
             cy="121.83697" />
        </g>
        <g
           id="g410"
           style="fill:#ff0000"
           transform="translate(17.311314,1.9656156)">
          <circle
             style="fill:#ff0000;fill-opacity:1;stroke:#000000;stroke-width:0.00937742;stroke-opacity:1"
             id="circle406"
             cx="332.29846"
             cy="121.83697"
             r="0.34531128" />
          <circle
             cy="121.83697"
             cx="334.26395"
             id="circle408"
             style="fill:#ff0000;fill-opacity:1;stroke:#000000;stroke-width:0.00937742;stroke-opacity:1"
             r="0.34531128" />
        </g>
      </g>
    </g>
    <g
       transform="translate(4.686905,221.54166)"
       id="g488">
      <g
         id="g472"
         transform="translate(-2.2678571,-178.40476)">
        <g
           transform="translate(-0.15119036,1.9656156)"
           style="fill:#ff0000"
           id="g464">
          <circle
             r="0.34531128"
             cy="121.83697"
             cx="332.29846"
             id="circle460"
             style="fill:#ff0000;fill-opacity:1;stroke:#000000;stroke-width:0.00937742;stroke-opacity:1" />
          <circle
             r="0.34531128"
             style="fill:#ff0000;fill-opacity:1;stroke:#000000;stroke-width:0.00937742;stroke-opacity:1"
             id="circle462"
             cx="334.26395"
             cy="121.83697" />
        </g>
        <g
           id="g470"
           style="fill:#ff0000"
           transform="translate(17.311314,1.9656156)">
          <circle
             style="fill:#ff0000;fill-opacity:1;stroke:#000000;stroke-width:0.00937742;stroke-opacity:1"
             id="circle466"
             cx="332.29846"
             cy="121.83697"
             r="0.34531128" />
          <circle
             cy="121.83697"
             cx="334.26395"
             id="circle468"
             style="fill:#ff0000;fill-opacity:1;stroke:#000000;stroke-width:0.00937742;stroke-opacity:1"
             r="0.34531128" />
        </g>
      </g>
      <g
         id="g486"
         transform="translate(-72.538691,-178.40476)">
        <g
           id="g478"
           style="fill:#ff0000"
           transform="translate(-0.15119036,1.9656156)">
          <circle
             style="fill:#ff0000;fill-opacity:1;stroke:#000000;stroke-width:0.00937742;stroke-opacity:1"
             id="circle474"
             cx="332.29846"
             cy="121.83697"
             r="0.34531128" />
          <circle
             cy="121.83697"
             cx="334.26395"
             id="circle476"
             style="fill:#ff0000;fill-opacity:1;stroke:#000000;stroke-width:0.00937742;stroke-opacity:1"
             r="0.34531128" />
        </g>
        <g
           transform="translate(17.311314,1.9656156)"
           style="fill:#ff0000"
           id="g484">
          <circle
             r="0.34531128"
             cy="121.83697"
             cx="332.29846"
             id="circle480"
             style="fill:#ff0000;fill-opacity:1;stroke:#000000;stroke-width:0.00937742;stroke-opacity:1" />
          <circle
             r="0.34531128"
             style="fill:#ff0000;fill-opacity:1;stroke:#000000;stroke-width:0.00937742;stroke-opacity:1"
             id="circle482"
             cx="334.26395"
             cy="121.83697" />
        </g>
      </g>
    </g>
    <g
       transform="translate(4.686905,177.54166)"
       id="g518">
      <g
         id="g502"
         transform="translate(-2.2678571,-178.40476)">
        <g
           transform="translate(-0.15119036,1.9656156)"
           style="fill:#ff0000"
           id="g494">
          <circle
             r="0.34531128"
             cy="121.83697"
             cx="332.29846"
             id="circle490"
             style="fill:#ff0000;fill-opacity:1;stroke:#000000;stroke-width:0.00937742;stroke-opacity:1" />
          <circle
             r="0.34531128"
             style="fill:#ff0000;fill-opacity:1;stroke:#000000;stroke-width:0.00937742;stroke-opacity:1"
             id="circle492"
             cx="334.26395"
             cy="121.83697" />
        </g>
        <g
           id="g500"
           style="fill:#ff0000"
           transform="translate(17.311314,1.9656156)">
          <circle
             style="fill:#ff0000;fill-opacity:1;stroke:#000000;stroke-width:0.00937742;stroke-opacity:1"
             id="circle496"
             cx="332.29846"
             cy="121.83697"
             r="0.34531128" />
          <circle
             cy="121.83697"
             cx="334.26395"
             id="circle498"
             style="fill:#ff0000;fill-opacity:1;stroke:#000000;stroke-width:0.00937742;stroke-opacity:1"
             r="0.34531128" />
        </g>
      </g>
      <g
         id="g516"
         transform="translate(-72.538691,-178.40476)">
        <g
           id="g508"
           style="fill:#ff0000"
           transform="translate(-0.15119036,1.9656156)">
          <circle
             style="fill:#ff0000;fill-opacity:1;stroke:#000000;stroke-width:0.00937742;stroke-opacity:1"
             id="circle504"
             cx="332.29846"
             cy="121.83697"
             r="0.34531128" />
          <circle
             cy="121.83697"
             cx="334.26395"
             id="circle506"
             style="fill:#ff0000;fill-opacity:1;stroke:#000000;stroke-width:0.00937742;stroke-opacity:1"
             r="0.34531128" />
        </g>
        <g
           transform="translate(17.311314,1.9656156)"
           style="fill:#ff0000"
           id="g514">
          <circle
             r="0.34531128"
             cy="121.83697"
             cx="332.29846"
             id="circle510"
             style="fill:#ff0000;fill-opacity:1;stroke:#000000;stroke-width:0.00937742;stroke-opacity:1" />
          <circle
             r="0.34531128"
             style="fill:#ff0000;fill-opacity:1;stroke:#000000;stroke-width:0.00937742;stroke-opacity:1"
             id="circle512"
             cx="334.26395"
             cy="121.83697" />
        </g>
      </g>
    </g>
    <g
       id="g548"
       transform="translate(4.686905,215.54166)">
      <g
         transform="translate(-2.2678571,-178.40476)"
         id="g532">
        <g
           id="g524"
           style="fill:#ff0000"
           transform="translate(-0.15119036,1.9656156)">
          <circle
             style="fill:#ff0000;fill-opacity:1;stroke:#000000;stroke-width:0.00937742;stroke-opacity:1"
             id="circle520"
             cx="332.29846"
             cy="121.83697"
             r="0.34531128" />
          <circle
             cy="121.83697"
             cx="334.26395"
             id="circle522"
             style="fill:#ff0000;fill-opacity:1;stroke:#000000;stroke-width:0.00937742;stroke-opacity:1"
             r="0.34531128" />
        </g>
        <g
           transform="translate(17.311314,1.9656156)"
           style="fill:#ff0000"
           id="g530">
          <circle
             r="0.34531128"
             cy="121.83697"
             cx="332.29846"
             id="circle526"
             style="fill:#ff0000;fill-opacity:1;stroke:#000000;stroke-width:0.00937742;stroke-opacity:1" />
          <circle
             r="0.34531128"
             style="fill:#ff0000;fill-opacity:1;stroke:#000000;stroke-width:0.00937742;stroke-opacity:1"
             id="circle528"
             cx="334.26395"
             cy="121.83697" />
        </g>
      </g>
      <g
         transform="translate(-72.538691,-178.40476)"
         id="g546">
        <g
           transform="translate(-0.15119036,1.9656156)"
           style="fill:#ff0000"
           id="g538">
          <circle
             r="0.34531128"
             cy="121.83697"
             cx="332.29846"
             id="circle534"
             style="fill:#ff0000;fill-opacity:1;stroke:#000000;stroke-width:0.00937742;stroke-opacity:1" />
          <circle
             r="0.34531128"
             style="fill:#ff0000;fill-opacity:1;stroke:#000000;stroke-width:0.00937742;stroke-opacity:1"
             id="circle536"
             cx="334.26395"
             cy="121.83697" />
        </g>
        <g
           id="g544"
           style="fill:#ff0000"
           transform="translate(17.311314,1.9656156)">
          <circle
             style="fill:#ff0000;fill-opacity:1;stroke:#000000;stroke-width:0.00937742;stroke-opacity:1"
             id="circle540"
             cx="332.29846"
             cy="121.83697"
             r="0.34531128" />
          <circle
             cy="121.83697"
             cx="334.26395"
             id="circle542"
             style="fill:#ff0000;fill-opacity:1;stroke:#000000;stroke-width:0.00937742;stroke-opacity:1"
             r="0.34531128" />
        </g>
      </g>
    </g>
    <g
       id="g793"
       transform="translate(0,154.21429)">
      <ellipse
         style="fill:#ffff00;fill-opacity:1;stroke:#000000;stroke-width:0.20094462;stroke-opacity:1"
         id="ellipse550"
         cx="-74.275154"
         cy="221.2186"
         rx="7.399528"
         ry="7.3995275" />
      <g
         id="g560"
         transform="translate(17.110138,-6.0246909)">
        <circle
           r="0.34531128"
           style="fill:#00ff00;fill-opacity:1;stroke:#000000;stroke-width:0.00937742;stroke-opacity:1"
           id="circle552"
           cx="-135.40025"
           cy="183.21951" />
        <circle
           r="0.34531128"
           cy="183.21951"
           cx="-138.42407"
           id="circle554"
           style="fill:#00ff00;fill-opacity:1;stroke:#000000;stroke-width:0.00937742;stroke-opacity:1" />
        <circle
           cy="183.21951"
           cx="-137.51689"
           id="circle556"
           style="fill:#00ff00;fill-opacity:1;stroke:#000000;stroke-width:0.00937742;stroke-opacity:1"
           r="0.34531128" />
        <circle
           r="0.34531128"
           style="fill:#00ff00;fill-opacity:1;stroke:#000000;stroke-width:0.00937742;stroke-opacity:1"
           id="circle558"
           cx="-136.45857"
           cy="183.21951" />
      </g>
      <g
         transform="translate(46.973819,23.775861)"
         id="g570">
        <circle
           cy="183.21951"
           cx="-135.40025"
           id="circle562"
           style="fill:#00ff00;fill-opacity:1;stroke:#000000;stroke-width:0.00937742;stroke-opacity:1"
           r="0.34531128" />
        <circle
           style="fill:#00ff00;fill-opacity:1;stroke:#000000;stroke-width:0.00937742;stroke-opacity:1"
           id="circle564"
           cx="-138.42407"
           cy="183.21951"
           r="0.34531128" />
        <circle
           r="0.34531128"
           style="fill:#00ff00;fill-opacity:1;stroke:#000000;stroke-width:0.00937742;stroke-opacity:1"
           id="circle566"
           cx="-137.51689"
           cy="183.21951" />
        <circle
           cy="183.21951"
           cx="-136.45857"
           id="circle568"
           style="fill:#00ff00;fill-opacity:1;stroke:#000000;stroke-width:0.00937742;stroke-opacity:1"
           r="0.34531128" />
      </g>
      <g
         id="g580"
         transform="translate(47.107454,-6.1583261)">
        <circle
           r="0.34531128"
           style="fill:#00ff00;fill-opacity:1;stroke:#000000;stroke-width:0.00937742;stroke-opacity:1"
           id="circle572"
           cx="-135.40025"
           cy="183.21951" />
        <circle
           r="0.34531128"
           cy="183.21951"
           cx="-138.42407"
           id="circle574"
           style="fill:#00ff00;fill-opacity:1;stroke:#000000;stroke-width:0.00937742;stroke-opacity:1" />
        <circle
           cy="183.21951"
           cx="-137.51689"
           id="circle576"
           style="fill:#00ff00;fill-opacity:1;stroke:#000000;stroke-width:0.00937742;stroke-opacity:1"
           r="0.34531128" />
        <circle
           r="0.34531128"
           style="fill:#00ff00;fill-opacity:1;stroke:#000000;stroke-width:0.00937742;stroke-opacity:1"
           id="circle578"
           cx="-136.45857"
           cy="183.21951" />
      </g>
      <g
         transform="translate(77.041641,-6.0246913)"
         id="g590">
        <circle
           cy="183.21951"
           cx="-135.40025"
           id="circle582"
           style="fill:#00ff00;fill-opacity:1;stroke:#000000;stroke-width:0.00937742;stroke-opacity:1"
           r="0.34531128" />
        <circle
           style="fill:#00ff00;fill-opacity:1;stroke:#000000;stroke-width:0.00937742;stroke-opacity:1"
           id="circle584"
           cx="-138.42407"
           cy="183.21951"
           r="0.34531128" />
        <circle
           r="0.34531128"
           style="fill:#00ff00;fill-opacity:1;stroke:#000000;stroke-width:0.00937742;stroke-opacity:1"
           id="circle586"
           cx="-137.51689"
           cy="183.21951" />
        <circle
           cy="183.21951"
           cx="-136.45857"
           id="circle588"
           style="fill:#00ff00;fill-opacity:1;stroke:#000000;stroke-width:0.00937742;stroke-opacity:1"
           r="0.34531128" />
      </g>
      <g
         id="g600"
         transform="translate(107.10946,-6.2919608)">
        <circle
           r="0.34531128"
           style="fill:#00ff00;fill-opacity:1;stroke:#000000;stroke-width:0.00937742;stroke-opacity:1"
           id="circle592"
           cx="-135.40025"
           cy="183.21951" />
        <circle
           r="0.34531128"
           cy="183.21951"
           cx="-138.42407"
           id="circle594"
           style="fill:#00ff00;fill-opacity:1;stroke:#000000;stroke-width:0.00937742;stroke-opacity:1" />
        <circle
           cy="183.21951"
           cx="-137.51689"
           id="circle596"
           style="fill:#00ff00;fill-opacity:1;stroke:#000000;stroke-width:0.00937742;stroke-opacity:1"
           r="0.34531128" />
        <circle
           r="0.34531128"
           style="fill:#00ff00;fill-opacity:1;stroke:#000000;stroke-width:0.00937742;stroke-opacity:1"
           id="circle598"
           cx="-136.45857"
           cy="183.21951" />
      </g>
      <g
         transform="translate(77.041643,23.909496)"
         id="g610">
        <circle
           cy="183.21951"
           cx="-135.40025"
           id="circle602"
           style="fill:#00ff00;fill-opacity:1;stroke:#000000;stroke-width:0.00937742;stroke-opacity:1"
           r="0.34531128" />
        <circle
           style="fill:#00ff00;fill-opacity:1;stroke:#000000;stroke-width:0.00937742;stroke-opacity:1"
           id="circle604"
           cx="-138.42407"
           cy="183.21951"
           r="0.34531128" />
        <circle
           r="0.34531128"
           style="fill:#00ff00;fill-opacity:1;stroke:#000000;stroke-width:0.00937742;stroke-opacity:1"
           id="circle606"
           cx="-137.51689"
           cy="183.21951" />
        <circle
           cy="183.21951"
           cx="-136.45857"
           id="circle608"
           style="fill:#00ff00;fill-opacity:1;stroke:#000000;stroke-width:0.00937742;stroke-opacity:1"
           r="0.34531128" />
      </g>
      <g
         id="g620"
         transform="translate(106.8422,23.775861)">
        <circle
           r="0.34531128"
           style="fill:#00ff00;fill-opacity:1;stroke:#000000;stroke-width:0.00937742;stroke-opacity:1"
           id="circle612"
           cx="-135.40025"
           cy="183.21951" />
        <circle
           r="0.34531128"
           cy="183.21951"
           cx="-138.42407"
           id="circle614"
           style="fill:#00ff00;fill-opacity:1;stroke:#000000;stroke-width:0.00937742;stroke-opacity:1" />
        <circle
           cy="183.21951"
           cx="-137.51689"
           id="circle616"
           style="fill:#00ff00;fill-opacity:1;stroke:#000000;stroke-width:0.00937742;stroke-opacity:1"
           r="0.34531128" />
        <circle
           r="0.34531128"
           style="fill:#00ff00;fill-opacity:1;stroke:#000000;stroke-width:0.00937742;stroke-opacity:1"
           id="circle618"
           cx="-136.45857"
           cy="183.21951" />
      </g>
      <g
         transform="translate(17.039639,23.775861)"
         id="g630">
        <circle
           cy="183.21951"
           cx="-135.40025"
           id="circle622"
           style="fill:#00ff00;fill-opacity:1;stroke:#000000;stroke-width:0.00937742;stroke-opacity:1"
           r="0.34531128" />
        <circle
           style="fill:#00ff00;fill-opacity:1;stroke:#000000;stroke-width:0.00937742;stroke-opacity:1"
           id="circle624"
           cx="-138.42407"
           cy="183.21951"
           r="0.34531128" />
        <circle
           r="0.34531128"
           style="fill:#00ff00;fill-opacity:1;stroke:#000000;stroke-width:0.00937742;stroke-opacity:1"
           id="circle626"
           cx="-137.51689"
           cy="183.21951" />
        <circle
           cy="183.21951"
           cx="-136.45857"
           id="circle628"
           style="fill:#00ff00;fill-opacity:1;stroke:#000000;stroke-width:0.00937742;stroke-opacity:1"
           r="0.34531128" />
      </g>
      <g
         transform="translate(106.97583,53.710048)"
         id="g640">
        <circle
           cy="183.21951"
           cx="-135.40025"
           id="circle632"
           style="fill:#00ff00;fill-opacity:1;stroke:#000000;stroke-width:0.00937742;stroke-opacity:1"
           r="0.34531128" />
        <circle
           style="fill:#00ff00;fill-opacity:1;stroke:#000000;stroke-width:0.00937742;stroke-opacity:1"
           id="circle634"
           cx="-138.42407"
           cy="183.21951"
           r="0.34531128" />
        <circle
           r="0.34531128"
           style="fill:#00ff00;fill-opacity:1;stroke:#000000;stroke-width:0.00937742;stroke-opacity:1"
           id="circle636"
           cx="-137.51689"
           cy="183.21951" />
        <circle
           cy="183.21951"
           cx="-136.45857"
           id="circle638"
           style="fill:#00ff00;fill-opacity:1;stroke:#000000;stroke-width:0.00937742;stroke-opacity:1"
           r="0.34531128" />
      </g>
      <g
         id="g650"
         transform="translate(76.774373,53.843683)">
        <circle
           r="0.34531128"
           style="fill:#00ff00;fill-opacity:1;stroke:#000000;stroke-width:0.00937742;stroke-opacity:1"
           id="circle642"
           cx="-135.40025"
           cy="183.21951" />
        <circle
           r="0.34531128"
           cy="183.21951"
           cx="-138.42407"
           id="circle644"
           style="fill:#00ff00;fill-opacity:1;stroke:#000000;stroke-width:0.00937742;stroke-opacity:1" />
        <circle
           cy="183.21951"
           cx="-137.51689"
           id="circle646"
           style="fill:#00ff00;fill-opacity:1;stroke:#000000;stroke-width:0.00937742;stroke-opacity:1"
           r="0.34531128" />
        <circle
           r="0.34531128"
           style="fill:#00ff00;fill-opacity:1;stroke:#000000;stroke-width:0.00937742;stroke-opacity:1"
           id="circle648"
           cx="-136.45857"
           cy="183.21951" />
      </g>
      <g
         transform="translate(46.973821,53.843683)"
         id="g660">
        <circle
           cy="183.21951"
           cx="-135.40025"
           id="circle652"
           style="fill:#00ff00;fill-opacity:1;stroke:#000000;stroke-width:0.00937742;stroke-opacity:1"
           r="0.34531128" />
        <circle
           style="fill:#00ff00;fill-opacity:1;stroke:#000000;stroke-width:0.00937742;stroke-opacity:1"
           id="circle654"
           cx="-138.42407"
           cy="183.21951"
           r="0.34531128" />
        <circle
           r="0.34531128"
           style="fill:#00ff00;fill-opacity:1;stroke:#000000;stroke-width:0.00937742;stroke-opacity:1"
           id="circle656"
           cx="-137.51689"
           cy="183.21951" />
        <circle
           cy="183.21951"
           cx="-136.45857"
           id="circle658"
           style="fill:#00ff00;fill-opacity:1;stroke:#000000;stroke-width:0.00937742;stroke-opacity:1"
           r="0.34531128" />
      </g>
      <g
         id="g670"
         transform="translate(16.905999,53.710048)">
        <circle
           r="0.34531128"
           style="fill:#00ff00;fill-opacity:1;stroke:#000000;stroke-width:0.00937742;stroke-opacity:1"
           id="circle662"
           cx="-135.40025"
           cy="183.21951" />
        <circle
           r="0.34531128"
           cy="183.21951"
           cx="-138.42407"
           id="circle664"
           style="fill:#00ff00;fill-opacity:1;stroke:#000000;stroke-width:0.00937742;stroke-opacity:1" />
        <circle
           cy="183.21951"
           cx="-137.51689"
           id="circle666"
           style="fill:#00ff00;fill-opacity:1;stroke:#000000;stroke-width:0.00937742;stroke-opacity:1"
           r="0.34531128" />
        <circle
           r="0.34531128"
           style="fill:#00ff00;fill-opacity:1;stroke:#000000;stroke-width:0.00937742;stroke-opacity:1"
           id="circle668"
           cx="-136.45857"
           cy="183.21951" />
      </g>
      <g
         transform="translate(16.772364,83.77787)"
         id="g680">
        <circle
           cy="183.21951"
           cx="-135.40025"
           id="circle672"
           style="fill:#00ff00;fill-opacity:1;stroke:#000000;stroke-width:0.00937742;stroke-opacity:1"
           r="0.34531128" />
        <circle
           style="fill:#00ff00;fill-opacity:1;stroke:#000000;stroke-width:0.00937742;stroke-opacity:1"
           id="circle674"
           cx="-138.42407"
           cy="183.21951"
           r="0.34531128" />
        <circle
           r="0.34531128"
           style="fill:#00ff00;fill-opacity:1;stroke:#000000;stroke-width:0.00937742;stroke-opacity:1"
           id="circle676"
           cx="-137.51689"
           cy="183.21951" />
        <circle
           cy="183.21951"
           cx="-136.45857"
           id="circle678"
           style="fill:#00ff00;fill-opacity:1;stroke:#000000;stroke-width:0.00937742;stroke-opacity:1"
           r="0.34531128" />
      </g>
      <g
         id="g690"
         transform="translate(46.973821,83.911505)">
        <circle
           r="0.34531128"
           style="fill:#00ff00;fill-opacity:1;stroke:#000000;stroke-width:0.00937742;stroke-opacity:1"
           id="circle682"
           cx="-135.40025"
           cy="183.21951" />
        <circle
           r="0.34531128"
           cy="183.21951"
           cx="-138.42407"
           id="circle684"
           style="fill:#00ff00;fill-opacity:1;stroke:#000000;stroke-width:0.00937742;stroke-opacity:1" />
        <circle
           cy="183.21951"
           cx="-137.51689"
           id="circle686"
           style="fill:#00ff00;fill-opacity:1;stroke:#000000;stroke-width:0.00937742;stroke-opacity:1"
           r="0.34531128" />
        <circle
           r="0.34531128"
           style="fill:#00ff00;fill-opacity:1;stroke:#000000;stroke-width:0.00937742;stroke-opacity:1"
           id="circle688"
           cx="-136.45857"
           cy="183.21951" />
      </g>
      <g
         transform="translate(76.774373,83.911505)"
         id="g700">
        <circle
           cy="183.21951"
           cx="-135.40025"
           id="circle692"
           style="fill:#00ff00;fill-opacity:1;stroke:#000000;stroke-width:0.00937742;stroke-opacity:1"
           r="0.34531128" />
        <circle
           style="fill:#00ff00;fill-opacity:1;stroke:#000000;stroke-width:0.00937742;stroke-opacity:1"
           id="circle694"
           cx="-138.42407"
           cy="183.21951"
           r="0.34531128" />
        <circle
           r="0.34531128"
           style="fill:#00ff00;fill-opacity:1;stroke:#000000;stroke-width:0.00937742;stroke-opacity:1"
           id="circle696"
           cx="-137.51689"
           cy="183.21951" />
        <circle
           cy="183.21951"
           cx="-136.45857"
           id="circle698"
           style="fill:#00ff00;fill-opacity:1;stroke:#000000;stroke-width:0.00937742;stroke-opacity:1"
           r="0.34531128" />
      </g>
      <g
         id="g710"
         transform="translate(107.10946,83.911505)">
        <circle
           r="0.34531128"
           style="fill:#00ff00;fill-opacity:1;stroke:#000000;stroke-width:0.00937742;stroke-opacity:1"
           id="circle702"
           cx="-135.40025"
           cy="183.21951" />
        <circle
           r="0.34531128"
           cy="183.21951"
           cx="-138.42407"
           id="circle704"
           style="fill:#00ff00;fill-opacity:1;stroke:#000000;stroke-width:0.00937742;stroke-opacity:1" />
        <circle
           cy="183.21951"
           cx="-137.51689"
           id="circle706"
           style="fill:#00ff00;fill-opacity:1;stroke:#000000;stroke-width:0.00937742;stroke-opacity:1"
           r="0.34531128" />
        <circle
           r="0.34531128"
           style="fill:#00ff00;fill-opacity:1;stroke:#000000;stroke-width:0.00937742;stroke-opacity:1"
           id="circle708"
           cx="-136.45857"
           cy="183.21951" />
      </g>
    </g>
  </g>
</svg>
